<svg width="37" height="37" viewBox="0 0 37 37" fill="none" xmlns="http://www.w3.org/2000/svg">
<path fill-rule="evenodd" clip-rule="evenodd" d="M18.5 7.39999C12.358 7.39999 7.40002 12.358 7.40002 18.5C7.40002 23.384 10.582 27.528 15.022 29.008C15.614 29.082 15.762 28.786 15.762 28.49V26.566C12.654 27.232 11.988 25.086 11.988 25.086C11.47 23.828 10.73 23.458 10.73 23.458C9.69402 22.792 10.804 22.792 10.804 22.792C11.914 22.866 12.506 23.902 12.506 23.902C13.468 25.604 15.096 25.086 15.762 24.79C15.836 24.05 16.132 23.606 16.502 23.31C14.06 23.014 11.47 22.052 11.47 17.834C11.47 16.65 11.914 15.614 12.58 14.874C12.432 14.578 12.062 13.468 12.654 11.914C12.654 11.914 13.616 11.618 15.688 13.024C16.576 12.802 17.538 12.654 18.5 12.654C19.462 12.654 20.424 12.802 21.312 13.024C23.458 11.618 24.346 11.914 24.346 11.914C24.938 13.468 24.568 14.578 24.42 14.874C25.16 15.614 25.53 16.65 25.53 17.834C25.53 22.126 22.94 23.014 20.498 23.31C20.868 23.68 21.238 24.346 21.238 25.382V28.416C21.238 28.712 21.46 29.082 21.978 28.934C26.418 27.454 29.526 23.31 29.526 18.426C29.6 12.358 24.642 7.39999 18.5 7.39999Z" fill="white"/>
</svg>
